# xmcd
#
# Track frame offsets:
#	150
#	15559
#	29732
#	44512
#	58964
#	74316
#	88617
#	104689
#	118555
#	131590
#	146220
#	161628
#	178176
#	192696
#	208246
#	223746
#	235236
#	249883
#	262645
#	280735
#	294431
#	309242
#	323515
#	337703
#
# Disc length: 4692 seconds
#
# Revision: 1
# Processed by: cddbd v1.5.2PL0 Copyright (c) Steve Scherf et al.
# Submitted via: audiograbber 1.83.01
#
DISCID=6d125218
DTITLE=Mega Hits 2019 - Die Erste - Mega Hits 2019 - Die Erste - CD 2
DYEAR=2018
DGENRE=Pop
TTITLE0=Sido - Tausend Tattoos
TTITLE1=Rita Ora - Let You Love Me
TTITLE2=Mark Forster - Einmal
TTITLE3=Lena - Thank You
TTITLE4=Clean Bandit - Baby
TTITLE5=Lost Frequencies - Like I Love You
TTITLE6=Marshmello and Bastille - Happier
TTITLE7=Wincent Weiss - Hier mit dir
TTITLE8=Benny Blanco, Halsey and Khalid - Eastside
TTITLE9=Dean Lewis - Be Alright
TTITLE10=Lukas Graham - Love Someone
TTITLE11=Avril Lavigne - Head Above Water
TTITLE12=Billie Eilish - when the party's over
TTITLE13=Ariana Grande - Thank u, next
TTITLE14=Madison Beer feat. Offset - Hurts Like Hell
TTITLE15=Bausa - Vagabund
TTITLE16=KitschKrieg feat. Trettmann, Gringo, Ufo361 and GZUZ - Standard
TTITLE17=Aya Nakamura - Djadja
TTITLE18=Sia - I'm Still Here
TTITLE19=David Guetta feat. Anne-Marie - Don't Leave Me Alone
TTITLE20=El Profesor feat. Laura White - Ce Soir? (Hugel Remix)
TTITLE21=Notd, Felix Jaehn and Captain Cuts feat. Georgia Ku - So Close
TTITLE22=Dua Lipa and Blackpink - Kiss And Make Up
TTITLE23=Don Diablo feat. Emeli Sande and Gucci Mane - Survive
EXTD=
EXTT0=
EXTT1=
EXTT2=
EXTT3=
EXTT4=
EXTT5=
EXTT6=
EXTT7=
EXTT8=
EXTT9=
EXTT10=
EXTT11=
EXTT12=
EXTT13=
EXTT14=
EXTT15=
EXTT16=
EXTT17=
EXTT18=
EXTT19=
EXTT20=
EXTT21=
EXTT22=
EXTT23=
PLAYORDER=
